<svg xmlns="http://www.w3.org/2000/svg" xmlns:xlink="http://www.w3.org/1999/xlink" viewBox="0 0 77 51.33"><defs><style>.cls-1{fill:url(#linear-gradient);}.cls-2{fill:#fff;}</style><linearGradient id="linear-gradient" y1="25.67" x2="77" y2="25.67" gradientUnits="userSpaceOnUse"><stop offset="0" stop-color="#cce0f4"/><stop offset="0.09" stop-color="#9dc0d6"/><stop offset="0.17" stop-color="#76a5bd"/><stop offset="0.26" stop-color="#5790aa"/><stop offset="0.34" stop-color="#41819c"/><stop offset="0.42" stop-color="#337894"/><stop offset="0.49" stop-color="#2f7591"/><stop offset="0.61" stop-color="#266178"/><stop offset="0.87" stop-color="#0e2d3a"/><stop offset="0.99" stop-color="#0e2c3a"/></linearGradient></defs><title>favicon</title><g id="Layer_1" data-name="Layer 1"><path class="cls-1" d="M5,0H57A20,20,0,0,1,77,20V46.33a5,5,0,0,1-5,5H20a20,20,0,0,1-20-20V5A5,5,0,0,1,5,0Z"/><path class="cls-2" d="M22.3,36.28q2.95-2.61,5.06-4.54l3.32-3q1.21-1.11,2.12-1.88A3.13,3.13,0,0,1,34,26q.49,0,.94,1a4.48,4.48,0,0,1,.45,1.65q0,.41-1.36,1.91T32,33a3.09,3.09,0,0,0-.67,1.88,1.2,1.2,0,0,0,.38.93,1.31,1.31,0,0,0,.92.35,2.67,2.67,0,0,0,1.48-.64q.86-.64,2.72-2.29v1.52q-1.86,1.75-3.37,3a18.15,18.15,0,0,1-2.64,1.9,4.06,4.06,0,0,1-1.87.63,1.43,1.43,0,0,1-1.11-.5,1.8,1.8,0,0,1-.45-1.25,4.53,4.53,0,0,1,.26-1.47,13.3,13.3,0,0,1,.79-1.77q.53-1,1.41-2.47l1.6-2.64Q29.26,32,27.58,33.65t-2.75,2.87l-1.69,1.93a3.24,3.24,0,0,1-2.22,1.32q-1.11,0-1.11-1.58a6.45,6.45,0,0,1,.83-2.3q.83-1.65,2.37-4.22a.89.89,0,0,0,.13-.53.38.38,0,0,0-.43-.43q-.47,0-1.36.89t-3.43,3.71a22.33,22.33,0,0,0-1.59,2.06,20.56,20.56,0,0,1-1.27,1.7,1.07,1.07,0,0,1-.77.43q-.77,0-1.43-1.37A7.22,7.22,0,0,1,12.2,35a5.47,5.47,0,0,1,.44-2.29A20,20,0,0,1,14,30.27a21.29,21.29,0,0,1,2.34-3,2.72,2.72,0,0,1,1.91-.89,2.07,2.07,0,0,1,1,.25.75.75,0,0,1,.43.67,3.15,3.15,0,0,1-.78,1.47,16.07,16.07,0,0,1-2,2.11,8.31,8.31,0,0,0-1.22,1.53,3,3,0,0,0-.58,1.31q0,.58.45.58t1.84-1.49l3.24-3.26A34.91,34.91,0,0,1,24,26.68a4.53,4.53,0,0,1,2.55-1.16,1.34,1.34,0,0,1,1.06.48A1.75,1.75,0,0,1,28,27.18a4.68,4.68,0,0,1-.64,1.7,31.74,31.74,0,0,1-1.87,3Q24.24,33.71,22.3,36.28Z"/><path class="cls-2" d="M56,11.92a3.56,3.56,0,0,1-.57,1.13l-1.69,2.67Q52.62,17.48,51,20.21t-3.29,6q-1.94,3.81-2.8,6A10.53,10.53,0,0,0,44.08,36a2.69,2.69,0,0,0,1.32,2.19,24.7,24.7,0,0,0,3.14-3,43.3,43.3,0,0,0,3.05-3.84Q53.1,29.26,55.08,26t3.53-6q-.07-.22-.16-.45a1.07,1.07,0,0,1-.09-.37,5.15,5.15,0,0,1,.47-2.19,11.74,11.74,0,0,1,1.18-2q.71-1,2.13-2.74a1.13,1.13,0,0,1,.92-.47q.9,0,.9,1.15a11.6,11.6,0,0,1-.93,3.6,47.37,47.37,0,0,1-2.75,5.77q-1.82,3.31-4.52,7.41t-6.12,8.56q-3.46,4.51-5,4.51a3.1,3.1,0,0,1-1.92-.93,7.76,7.76,0,0,1-1.84-2.55,7.94,7.94,0,0,1-.77-3.46,11.37,11.37,0,0,1,.46-2.82A35.45,35.45,0,0,1,42,29a52.22,52.22,0,0,1,2.23-4.75q1.3-2.47,2.28-4.09t2.23-3.6A14.38,14.38,0,0,0,50,14.36q0-.37-.5-.37a8.12,8.12,0,0,0-3.85,1.47,73.94,73.94,0,0,0-6.27,4.46q-1.47,1.15-1.86,1.48t-.39.56q0,.3.47.3.2,0,1.35-.15A14.86,14.86,0,0,1,40.81,22q1.12,0,1.12.4t-.46.55a8.34,8.34,0,0,1-1.27.4L38,23.86A21.59,21.59,0,0,0,34.82,25a10.16,10.16,0,0,1-1.93.75.54.54,0,0,1-.59-.35,4.14,4.14,0,0,1-.11-1.15,10.6,10.6,0,0,1,1.17-5.47,14.46,14.46,0,0,1,4.19-4,54.84,54.84,0,0,1,6.58-4,39.13,39.13,0,0,1,5.42-2.32,12.41,12.41,0,0,1,3.35-.73A2.79,2.79,0,0,1,55,9.08,4.59,4.59,0,0,1,56,11.92Z"/><polygon class="cls-2" points="71.22 13.9 66.82 20 68.99 16.52 68.79 16.26 64.56 23.13 61.72 27.07 66.22 19.88 66.02 19.62 61.09 27.62 61.23 27.75 57.84 32.45 62.57 24.88 62.38 24.62 57.45 32.62 57.61 32.77 57.23 33.3 73.55 49.15 61.52 33.31 71.22 13.9"/><polygon class="cls-2" points="20.7 17.02 3.45 2.19 16.42 17.27 15.61 19.16 11.05 27.29 11.24 27.46 14.57 21.6 13.54 24.01 13.49 23.95 8.89 32.14 9.08 32.3 12.79 25.8 11.36 29.14 6.79 37.27 6.98 37.44 10.32 31.58 7.91 37.23 20.7 17.02"/></g></svg>