<?xml version="1.0" encoding="utf-8"?>
<!-- Generator: Adobe Illustrator 21.0.0, SVG Export Plug-In . SVG Version: 6.00 Build 0)  -->
<svg version="1.1" xmlns="http://www.w3.org/2000/svg" xmlns:xlink="http://www.w3.org/1999/xlink" x="0px" y="0px"
	 viewBox="0 0 120.9 81" style="enable-background:new 0 0 120.9 81;" xml:space="preserve">
<style type="text/css">
	.st0{fill:#FFFFFF;}
</style>
<g id="Layer_2">
</g>
<g id="Layer_1">
	<g>
		<path class="st0" d="M35.4,58.8c3.4-3,6.3-5.6,8.7-7.8c2.4-2.2,4.3-4,5.7-5.2c1.4-1.3,2.6-2.4,3.7-3.2c1.1-0.9,1.7-1.3,2-1.3
			c0.6,0,1.1,0.6,1.6,1.8c0.5,1.2,0.8,2.1,0.8,2.9c0,0.5-0.8,1.6-2.3,3.3c-1.6,1.7-2.7,3.1-3.5,4.1c-0.8,1-1.2,2.1-1.2,3.2
			c0,0.7,0.2,1.2,0.7,1.6c0.4,0.4,1,0.6,1.6,0.6c0.7,0,1.6-0.4,2.6-1.1c1-0.7,2.6-2.1,4.7-3.9v2.6c-2.1,2-4.1,3.8-5.8,5.2
			c-1.7,1.5-3.3,2.6-4.5,3.3c-1.3,0.7-2.4,1.1-3.2,1.1c-0.8,0-1.4-0.3-1.9-0.9c-0.5-0.6-0.8-1.3-0.8-2.2c0-0.8,0.1-1.7,0.4-2.5
			c0.3-0.9,0.7-1.9,1.4-3.1c0.6-1.2,1.4-2.6,2.4-4.3c1-1.7,1.9-3.2,2.8-4.5c-2.5,2-4.7,4-6.7,5.9c-1.9,1.9-3.5,3.5-4.8,5
			c-1.2,1.4-2.2,2.5-2.9,3.3c-1.4,1.5-2.7,2.3-3.8,2.3c-1.3,0-1.9-0.9-1.9-2.7c0-0.7,0.5-2.1,1.4-4c1-1.9,2.3-4.3,4.1-7.3
			c0.1-0.2,0.2-0.5,0.2-0.9c0-0.5-0.2-0.7-0.7-0.7c-0.5,0-1.3,0.5-2.3,1.5c-1,1-3,3.1-5.9,6.4c-0.8,0.9-1.7,2.1-2.7,3.6
			c-1,1.5-1.8,2.4-2.2,2.9c-0.4,0.5-0.9,0.7-1.3,0.7c-0.9,0-1.7-0.8-2.5-2.4c-0.8-1.6-1.1-3.4-1.1-5.5c0-1.5,0.3-2.8,0.8-3.9
			c0.5-1.1,1.3-2.5,2.3-4.1c1.6-2.4,3-4.1,4-5.1c1-1,2.1-1.5,3.3-1.5c0.7,0,1.3,0.1,1.8,0.4c0.5,0.3,0.7,0.7,0.7,1.2
			c0,0.5-0.4,1.4-1.3,2.5s-2,2.4-3.4,3.6c-0.7,0.7-1.4,1.6-2.1,2.6s-1,1.8-1,2.3c0,0.7,0.3,1,0.8,1c0.4,0,1.5-0.9,3.2-2.6
			c1.7-1.7,3.6-3.6,5.6-5.6c2-2,3.9-3.7,5.6-5s3.2-2,4.4-2c0.7,0,1.3,0.3,1.8,0.8c0.5,0.6,0.7,1.2,0.7,2c0,0.5-0.4,1.5-1.1,2.9
			c-0.7,1.4-1.8,3.2-3.2,5.2C39.4,53.3,37.6,55.9,35.4,58.8z"/>
		<path class="st0" d="M90.7,16.8c0,0.3-0.3,0.9-1,2c-0.7,1-1.6,2.6-2.9,4.6c-1.3,2-2.9,4.6-4.7,7.7c-1.8,3.1-3.7,6.6-5.7,10.4
			c-2.2,4.4-3.8,7.8-4.8,10.3c-1,2.5-1.5,4.7-1.5,6.5c0,1.4,0.8,2.7,2.3,3.8c1.8-1.4,3.6-3.1,5.4-5.1c1.8-2,3.5-4.2,5.3-6.6
			c1.7-2.4,3.7-5.5,6-9.2c2.3-3.7,4.3-7.1,6.1-10.3c-0.1-0.3-0.2-0.5-0.3-0.8c-0.1-0.3-0.2-0.5-0.2-0.6c0-1.3,0.3-2.6,0.8-3.8
			c0.5-1.2,1.2-2.3,2-3.4c0.8-1.1,2-2.7,3.7-4.7c0.4-0.5,1-0.8,1.6-0.8c1,0,1.5,0.7,1.5,2c0,1.3-0.5,3.4-1.6,6.2
			c-1.1,2.8-2.7,6.1-4.7,9.9c-2.1,3.8-4.7,8.1-7.8,12.8s-6.6,9.6-10.6,14.8c-4,5.2-6.8,7.8-8.6,7.8c-1,0-2.1-0.5-3.3-1.6
			c-1.2-1.1-2.3-2.5-3.2-4.4c-0.9-1.9-1.3-3.9-1.3-6c0-1.3,0.3-2.9,0.8-4.9c0.5-2,1.4-4.3,2.5-7.1c1.1-2.8,2.4-5.5,3.8-8.2
			c1.5-2.8,2.8-5.2,3.9-7c1.1-1.9,2.4-3.9,3.8-6.2c1.4-2.3,2.1-3.5,2.1-3.7c0-0.4-0.3-0.6-0.9-0.6c-1.7,0-3.9,0.8-6.6,2.5
			c-2.8,1.7-6.4,4.3-10.8,7.7c-1.7,1.3-2.8,2.2-3.2,2.6c-0.4,0.4-0.7,0.7-0.7,1c0,0.3,0.3,0.5,0.8,0.5c0.2,0,1-0.1,2.3-0.3
			c1.3-0.2,2.4-0.3,3.1-0.3c1.3,0,1.9,0.2,1.9,0.7c0,0.4-0.3,0.7-0.8,0.9c-0.5,0.2-1.3,0.5-2.2,0.7c-0.9,0.2-2.2,0.5-3.8,0.9
			c-1.7,0.5-3.5,1.1-5.5,2s-3,1.3-3.3,1.3c-0.5,0-0.9-0.2-1-0.6s-0.2-1.1-0.2-2c0-4.1,0.7-7.2,2-9.4c1.3-2.2,3.8-4.5,7.2-6.9
			c4-2.8,7.7-5,11.3-6.9c3.6-1.8,6.7-3.2,9.3-4c2.6-0.8,4.5-1.3,5.8-1.3c1.2,0,2.4,0.8,3.6,2.3C90.1,13.4,90.7,15.1,90.7,16.8z"/>
	</g>
	<polygon class="st0" points="116.9,20.2 109.3,30.7 113,24.7 112.7,24.3 105.4,36.1 100.5,42.9 108.3,30.5 107.9,30.1 99.4,43.9 
		99.7,44.1 93.8,52.2 102,39.1 101.6,38.7 93.1,52.5 93.4,52.8 92.8,53.7 120.9,81 100.2,53.7 	"/>
	<polygon class="st0" points="29.8,25.6 0,0 22.4,26 21,29.3 13.1,43.3 13.4,43.6 19.2,33.5 17.4,37.6 17.3,37.5 9.4,51.7 9.7,51.9 
		16.1,40.7 13.6,46.5 5.8,60.5 6.1,60.8 11.8,50.7 7.7,60.4 	"/>
</g>
</svg>
